<svg xmlns="http://www.w3.org/2000/svg" viewBox="0 0 560 360" role="img" aria-label="Omni warehouse">
  <defs>
    <linearGradient id="sky" x1="0" x2="0" y1="0" y2="1">
      <stop offset="0" stop-color="#e9f7ff"/>
      <stop offset="1" stop-color="#fff6f9"/>
    </linearGradient>
    <linearGradient id="wall" x1="0" x2="1" y1="0" y2="1">
      <stop offset="0" stop-color="#ffffff"/>
      <stop offset="1" stop-color="#ffe2ef"/>
    </linearGradient>
    <filter id="shadow" x="-20%" y="-20%" width="140%" height="150%">
      <feDropShadow dx="0" dy="9" stdDeviation="8" flood-color="#263044" flood-opacity="0.14"/>
    </filter>
  </defs>
  <rect width="560" height="360" rx="28" fill="url(#sky)"/>
  <circle cx="70" cy="58" r="27" fill="#ffd66b" opacity="0.74"/>
  <path d="M330 63h44M397 82h62M87 102h66" stroke="#ffffff" stroke-width="13" stroke-linecap="round" opacity="0.8"/>
  <g filter="url(#shadow)">
    <path d="M92 155l190-90 190 90v142H92z" fill="url(#wall)" stroke="#243044" stroke-width="7" stroke-linejoin="round"/>
    <path d="M77 158h410l-205-99z" fill="#e8b9cc" stroke="#243044" stroke-width="7" stroke-linejoin="round"/>
    <path d="M125 184h85v113h-85zM238 184h85v113h-85zM351 184h85v113h-85z" fill="#fffafd" stroke="#e9b8cc" stroke-width="5"/>
    <path d="M253 111h60c11 0 20 9 20 20v18h-100v-18c0-11 9-20 20-20z" fill="#ffffff" stroke="#243044" stroke-width="5"/>
    <text x="283" y="142" text-anchor="middle" font-family="Inter, Arial, sans-serif" font-size="30" font-weight="800" fill="#253044">omni</text>
    <rect x="249" y="153" width="68" height="9" rx="4.5" fill="#ff5789"/>
    <path d="M105 300h354" stroke="#243044" stroke-width="8" stroke-linecap="round" opacity="0.16"/>
  </g>
  <g opacity="0.9">
    <rect x="46" y="278" width="54" height="42" rx="7" fill="#ffffff" stroke="#e9b8cc" stroke-width="4"/>
    <rect x="54" y="288" width="16" height="22" rx="3" fill="#ff8db4"/>
    <rect x="77" y="295" width="13" height="15" rx="3" fill="#48cfae"/>
    <rect x="457" y="277" width="58" height="44" rx="8" fill="#ffffff" stroke="#e9b8cc" stroke-width="4"/>
    <path d="M472 294h27M472 307h18" stroke="#c83b70" stroke-width="6" stroke-linecap="round" opacity="0.5"/>
  </g>
</svg>
